<svg width="29" height="29" viewBox="0 0 29 29" fill="none" xmlns="http://www.w3.org/2000/svg">
	<path fill-rule="evenodd" clip-rule="evenodd" d="M14.3393 28.8392C22.2586 28.8392 28.6785 22.4193 28.6785 14.5C28.6785 6.58065 22.2586 0.160767 14.3393 0.160767C6.41996 0.160767 0 6.58065 0 14.5C0 22.4193 6.41996 28.8392 14.3393 28.8392ZM17.9739 9.89055C19.3782 10.0227 20.3585 10.3375 22.1039 10.9903C22.4091 11.1044 22.5949 11.414 22.5525 11.7369C22.3517 13.2638 22.1614 14.1178 21.5661 15.4015C21.4036 15.7521 20.9875 15.9045 20.6369 15.7419C20.2864 15.5794 20.1339 15.1634 20.2965 14.8128C20.6396 14.073 20.8267 13.5139 20.9693 12.7976C20.3216 13.0812 19.8719 13.2848 19.4778 13.5016C18.9133 13.8122 18.4654 14.1503 17.7224 14.8302C17.4372 15.0911 16.9947 15.0715 16.7337 14.7864C16.4729 14.5013 16.4926 14.0587 16.7776 13.7978C17.5637 13.0787 18.1038 12.6604 18.8033 12.2756C19.1362 12.0924 19.5062 11.9168 19.953 11.7167C19.1955 11.4798 18.5904 11.3541 17.8427 11.2837C17.458 11.2475 17.1755 10.9063 17.2118 10.5215C17.2479 10.1368 17.5892 9.85431 17.9739 9.89055ZM12.3056 17.7417C11.7889 17.7417 11.3562 18.1705 11.5164 18.6618C11.5423 18.7412 11.5715 18.8195 11.6042 18.8968C11.7587 19.263 11.9854 19.5958 12.2711 19.876C12.5567 20.1563 12.8959 20.3787 13.2692 20.5304C13.6424 20.6821 14.0425 20.7601 14.4465 20.7601C14.8505 20.7601 15.2506 20.6821 15.6239 20.5304C15.9971 20.3787 16.3363 20.1563 16.6219 19.876C16.9077 19.5958 17.1343 19.263 17.2888 18.8968C17.3111 18.8442 17.3317 18.7911 17.3508 18.7375C17.3597 18.7124 17.3684 18.6871 17.3766 18.6618C17.5369 18.1705 17.1041 17.7417 16.5874 17.7417H12.3056ZM6.59802 11.0507C7.88033 10.463 8.88673 10.2455 10.7247 9.93814C11.0458 9.88439 11.3618 10.0595 11.4864 10.3604C12.076 11.7831 12.3382 12.6179 12.4645 14.0272C12.4989 14.4121 12.215 14.7521 11.8301 14.7866C11.4452 14.8211 11.1051 14.5371 11.0706 14.1522C10.9979 13.34 10.8803 12.7623 10.6457 12.0706C10.2265 12.6401 9.93897 13.0413 9.70607 13.426C9.37254 13.9773 9.15367 14.4939 8.85 15.4544C8.73355 15.8229 8.34046 16.0271 7.97199 15.9107C7.60353 15.7942 7.39929 15.4011 7.51575 15.0326C7.83688 14.0168 8.09561 13.3845 8.50886 12.7015C8.61874 12.52 8.73967 12.3349 8.87494 12.1377C8.98213 11.9816 9.09828 11.818 9.22518 11.6426C8.45064 11.8162 7.86375 12.01 7.18102 12.3228C6.82973 12.4838 6.41454 12.3296 6.25345 11.9783C6.09251 11.627 6.24673 11.2117 6.59802 11.0507Z" fill="#84909C" />
</svg>
